<svg width="782" height="600" viewBox="0 0 782 600" fill="none" xmlns="http://www.w3.org/2000/svg">
<path d="M135.2 21L215.6 283H178.8L161.6 222.2H65.2L48 283H13.2L93.2 21H135.2ZM113.6 52.2L73.6 191.8H153.2L113.6 52.2Z" fill="white"/>
<path d="M135.2 21L140.936 19.2398L139.635 15H135.2V21ZM215.6 283V289H223.717L221.336 281.24L215.6 283ZM178.8 283L173.027 284.633L174.262 289H178.8V283ZM161.6 222.2L167.373 220.567L166.138 216.2H161.6V222.2ZM65.2 222.2V216.2H60.6619L59.4266 220.567L65.2 222.2ZM48 283V289H52.5381L53.7734 284.633L48 283ZM13.2 283L7.46155 281.248L5.09447 289H13.2V283ZM93.2 21V15H88.7586L87.4616 19.2478L93.2 21ZM113.6 52.2L119.372 50.5626L113.629 30.3162L107.832 50.5473L113.6 52.2ZM73.6 191.8L67.8321 190.147L65.6394 197.8H73.6V191.8ZM153.2 191.8V197.8H161.139L158.972 190.163L153.2 191.8ZM129.464 22.7602L209.864 284.76L221.336 281.24L140.936 19.2398L129.464 22.7602ZM215.6 277H178.8V289H215.6V277ZM184.573 281.367L167.373 220.567L155.827 223.833L173.027 284.633L184.573 281.367ZM161.6 216.2H65.2V228.2H161.6V216.2ZM59.4266 220.567L42.2266 281.367L53.7734 284.633L70.9734 223.833L59.4266 220.567ZM48 277H13.2V289H48V277ZM18.9384 284.752L98.9385 22.7522L87.4616 19.2478L7.46155 281.248L18.9384 284.752ZM93.2 27H135.2V15H93.2V27ZM107.832 50.5473L67.8321 190.147L79.3679 193.453L119.368 53.8527L107.832 50.5473ZM73.6 197.8H153.2V185.8H73.6V197.8ZM158.972 190.163L119.372 50.5626L107.828 53.8374L147.428 193.437L158.972 190.163Z" fill="white"/>
<path d="M329.4 16.2C357.4 16.2 378.733 21.9333 393.4 33.4C408.067 44.8667 415.4 60.4667 415.4 80.2V89C415.4 117 403.133 136.333 378.6 147C393.533 150.2 405.133 157.133 413.4 167.8C421.933 178.2 426.2 191.133 426.2 206.6V215.4C426.2 237.533 418.333 255.133 402.6 268.2C387.133 281.267 363.667 287.8 332.2 287.8C314.333 287.8 289.933 287 259 285.4V17.8C283.533 16.7333 307 16.2 329.4 16.2ZM324.2 45.4C314.6 45.4 304.2 45.8 293 46.6V136.2H332.2C348.2 136.2 360.333 132.333 368.6 124.6C377.133 116.867 381.4 106.067 381.4 92.2V85.4C381.4 72.0667 376.867 62.0667 367.8 55.4C358.733 48.7333 344.2 45.4 324.2 45.4ZM293 163.8V255.8C301.8 256.6 309 257.267 314.6 257.8C320.467 258.067 326.333 258.2 332.2 258.2C352.733 258.2 367.8 254.333 377.4 246.6C387.267 238.6 392.2 227.533 392.2 213.4V205C392.2 177.533 373 163.8 334.6 163.8H293Z" fill="white"/>
<path d="M393.4 33.4L389.704 38.1268L389.704 38.1268L393.4 33.4ZM378.6 147L376.208 141.498L359.066 148.95L377.343 152.867L378.6 147ZM413.4 167.8L408.658 171.475L408.709 171.541L408.762 171.606L413.4 167.8ZM402.6 268.2L398.767 263.584L398.747 263.6L398.728 263.617L402.6 268.2ZM259 285.4H253V291.098L258.69 291.392L259 285.4ZM259 17.8L258.739 11.8056L253 12.0552V17.8H259ZM293 46.6L292.573 40.6152L287 41.0133V46.6H293ZM293 136.2H287V142.2H293V136.2ZM368.6 124.6L364.571 120.154L364.536 120.186L364.501 120.218L368.6 124.6ZM367.8 55.4L364.246 60.2339L364.246 60.2339L367.8 55.4ZM293 163.8V157.8H287V163.8H293ZM293 255.8H287V261.279L292.457 261.775L293 255.8ZM314.6 257.8L314.031 263.773L314.179 263.787L314.328 263.794L314.6 257.8ZM377.4 246.6L381.164 251.273L381.171 251.267L381.179 251.261L377.4 246.6ZM329.4 22.2C356.705 22.2 376.508 27.8094 389.704 38.1268L397.096 28.6732C380.959 16.0572 358.095 10.2 329.4 10.2V22.2ZM389.704 38.1268C402.819 48.3797 409.4 62.1848 409.4 80.2H421.4C421.4 58.7485 413.315 41.3536 397.096 28.6732L389.704 38.1268ZM409.4 80.2V89H421.4V80.2H409.4ZM409.4 89C409.4 102.116 406.534 112.775 401.134 121.286C395.746 129.778 387.564 136.56 376.208 141.498L380.992 152.502C394.169 146.773 404.388 138.556 411.266 127.714C418.133 116.892 421.4 103.884 421.4 89H409.4ZM377.343 152.867C391.086 155.812 401.372 162.075 408.658 171.475L418.142 164.125C408.895 152.192 395.981 144.588 379.857 141.133L377.343 152.867ZM408.762 171.606C416.285 180.775 420.2 192.302 420.2 206.6H432.2C432.2 189.964 427.582 175.625 418.038 163.994L408.762 171.606ZM420.2 206.6V215.4H432.2V206.6H420.2ZM420.2 215.4C420.2 235.916 413.004 251.76 398.767 263.584L406.433 272.816C423.663 258.507 432.2 239.151 432.2 215.4H420.2ZM398.728 263.617C384.803 275.381 362.996 281.8 332.2 281.8V293.8C364.337 293.8 389.463 287.153 406.472 272.783L398.728 263.617ZM332.2 281.8C314.485 281.8 290.203 281.006 259.31 279.408L258.69 291.392C289.664 292.994 314.182 293.8 332.2 293.8V281.8ZM265 285.4V17.8H253V285.4H265ZM259.261 23.7943C283.715 22.7311 307.095 22.2 329.4 22.2V10.2C306.905 10.2 283.351 10.7356 258.739 11.8056L259.261 23.7943ZM324.2 39.4C314.436 39.4 303.892 39.8067 292.573 40.6152L293.427 52.5847C304.508 51.7932 314.764 51.4 324.2 51.4V39.4ZM287 46.6V136.2H299V46.6H287ZM293 142.2H332.2V130.2H293V142.2ZM332.2 142.2C349.092 142.2 362.933 138.117 372.699 128.982L364.501 120.218C357.734 126.549 347.308 130.2 332.2 130.2V142.2ZM372.629 129.046C382.671 119.945 387.4 107.385 387.4 92.2H375.4C375.4 104.748 371.596 113.788 364.571 120.154L372.629 129.046ZM387.4 92.2V85.4H375.4V92.2H387.4ZM387.4 85.4C387.4 70.5576 382.254 58.5808 371.354 50.5661L364.246 60.2339C371.479 65.5525 375.4 73.5757 375.4 85.4H387.4ZM371.354 50.5661C360.724 42.7496 344.602 39.4 324.2 39.4V51.4C343.798 51.4 356.743 54.7171 364.246 60.2339L371.354 50.5661ZM287 163.8V255.8H299V163.8H287ZM292.457 261.775C301.252 262.575 308.443 263.241 314.031 263.773L315.169 251.827C309.557 251.293 302.348 250.625 293.543 249.825L292.457 261.775ZM314.328 263.794C320.285 264.065 326.242 264.2 332.2 264.2V252.2C326.424 252.2 320.648 252.069 314.872 251.806L314.328 263.794ZM332.2 264.2C353.266 264.2 369.99 260.274 381.164 251.273L373.636 241.927C365.61 248.393 352.201 252.2 332.2 252.2V264.2ZM381.179 251.261C392.621 241.983 398.2 229.111 398.2 213.4H386.2C386.2 225.956 381.913 235.217 373.621 241.939L381.179 251.261ZM398.2 213.4V205H386.2V213.4H398.2ZM398.2 205C398.2 189.693 392.739 177.409 381.291 169.22C370.213 161.296 354.334 157.8 334.6 157.8V169.8C353.266 169.8 366.187 173.17 374.309 178.98C382.061 184.525 386.2 192.84 386.2 205H398.2ZM334.6 157.8H293V169.8H334.6V157.8Z" fill="white"/>
<path d="M103.2 316.2C134.933 316.2 159.333 325.267 176.4 343.4C193.733 361.267 202.4 387.133 202.4 421V486.6C202.4 519.133 193.733 544.2 176.4 561.8C159.333 579.133 134.267 587.8 101.2 587.8C78.5333 587.8 54.8 587 30 585.4V317.8C54 316.733 78.4 316.2 103.2 316.2ZM101.2 345C92.9333 345 80.5333 345.267 64 345.8V556.2C79.7333 557.8 92.1333 558.6 101.2 558.6C121.733 558.6 138 552.733 150 541C162.267 529 168.4 511.8 168.4 489.4V418.6C168.4 394.333 162.533 376.067 150.8 363.8C139.067 351.267 122.533 345 101.2 345Z" fill="white"/>
<path d="M176.4 343.4L172.031 347.512L172.062 347.545L172.094 347.578L176.4 343.4ZM176.4 561.8L172.125 557.59L172.125 557.59L176.4 561.8ZM30 585.4H24V591.025L29.6137 591.388L30 585.4ZM30 317.8L29.7336 311.806L24 312.061V317.8H30ZM64 345.8L63.8066 339.803L58 339.99V345.8H64ZM64 556.2H58V561.621L63.393 562.169L64 556.2ZM150 541L154.195 545.29L154.196 545.289L150 541ZM150.8 363.8L146.42 367.901L146.442 367.924L146.464 367.947L150.8 363.8ZM103.2 322.2C133.76 322.2 156.39 330.894 172.031 347.512L180.769 339.288C162.277 319.639 136.107 310.2 103.2 310.2V322.2ZM172.094 347.578C187.998 363.971 196.4 388.119 196.4 421H208.4C208.4 386.148 199.469 358.562 180.706 339.222L172.094 347.578ZM196.4 421V486.6H208.4V421H196.4ZM196.4 486.6C196.4 518.075 188.037 541.434 172.125 557.59L180.675 566.01C199.43 546.966 208.4 520.192 208.4 486.6H196.4ZM172.125 557.59C156.544 573.415 133.253 581.8 101.2 581.8V593.8C135.28 593.8 162.123 584.852 180.675 566.01L172.125 557.59ZM101.2 581.8C78.6738 581.8 55.0698 581.005 30.3863 579.412L29.6137 591.388C54.5302 592.995 78.3929 593.8 101.2 593.8V581.8ZM36 585.4V317.8H24V585.4H36ZM30.2664 323.794C54.1749 322.731 78.486 322.2 103.2 322.2V310.2C78.314 310.2 53.8251 310.735 29.7336 311.806L30.2664 323.794ZM101.2 339C92.833 339 80.3542 339.269 63.8066 339.803L64.1934 351.797C80.7125 351.264 93.0337 351 101.2 351V339ZM58 345.8V556.2H70V345.8H58ZM63.393 562.169C79.2035 563.777 91.8354 564.6 101.2 564.6V552.6C92.4313 552.6 80.2631 551.823 64.607 550.231L63.393 562.169ZM101.2 564.6C122.93 564.6 140.833 558.354 154.195 545.29L145.805 536.71C135.167 547.112 120.537 552.6 101.2 552.6V564.6ZM154.196 545.289C167.939 531.845 174.4 512.899 174.4 489.4H162.4C162.4 510.701 156.595 526.155 145.804 536.711L154.196 545.289ZM174.4 489.4V418.6H162.4V489.4H174.4ZM174.4 418.6C174.4 393.452 168.322 373.438 155.136 359.653L146.464 367.947C156.745 378.695 162.4 395.215 162.4 418.6H174.4ZM155.18 359.699C142.048 345.672 123.763 339 101.2 339V351C121.304 351 136.085 356.861 146.42 367.901L155.18 359.699Z" fill="white"/>
<path d="M429.4 500.2C429.4 528.467 422.2 550.2 407.8 565.4C393.4 580.333 372.2 587.8 344.2 587.8C316.467 587.8 295.267 580.467 280.6 565.8C266.2 551.133 259 529.533 259 501V321H293V505.4C293 522.467 297.4 535.533 306.2 544.6C315.267 553.4 327.933 557.8 344.2 557.8C360.733 557.8 373.4 553.4 382.2 544.6C391 535.533 395.4 522.467 395.4 505.4V321H429.4V500.2Z" fill="white"/>
<path d="M407.8 565.4L412.119 569.565L412.137 569.546L412.156 569.526L407.8 565.4ZM280.6 565.8L276.319 570.004L276.338 570.023L276.357 570.043L280.6 565.8ZM259 321V315H253V321H259ZM293 321H299V315H293V321ZM306.2 544.6L301.895 548.779L301.957 548.843L302.021 548.905L306.2 544.6ZM382.2 544.6L386.443 548.843L386.474 548.811L386.505 548.779L382.2 544.6ZM395.4 321V315H389.4V321H395.4ZM429.4 321H435.4V315H429.4V321ZM423.4 500.2C423.4 527.48 416.464 547.531 403.444 561.274L412.156 569.526C427.936 552.869 435.4 529.454 435.4 500.2H423.4ZM403.481 561.235C390.564 574.63 371.16 581.8 344.2 581.8V593.8C373.24 593.8 396.236 586.036 412.119 569.565L403.481 561.235ZM344.2 581.8C317.504 581.8 298.045 574.76 284.843 561.557L276.357 570.043C292.488 586.173 315.429 593.8 344.2 593.8V581.8ZM284.881 561.596C271.952 548.427 265 528.581 265 501H253C253 530.486 260.448 553.839 276.319 570.004L284.881 561.596ZM265 501V321H253V501H265ZM259 327H293V315H259V327ZM287 321V505.4H299V321H287ZM287 505.4C287 523.467 291.672 538.246 301.895 548.779L310.505 540.421C303.128 532.82 299 521.467 299 505.4H287ZM302.021 548.905C312.503 559.079 326.84 563.8 344.2 563.8V551.8C329.027 551.8 318.03 547.721 310.379 540.295L302.021 548.905ZM344.2 563.8C361.784 563.8 376.185 559.1 386.443 548.843L377.957 540.357C370.615 547.7 359.683 551.8 344.2 551.8V563.8ZM386.505 548.779C396.728 538.246 401.4 523.467 401.4 505.4H389.4C389.4 521.467 385.272 532.82 377.895 540.421L386.505 548.779ZM401.4 505.4V321H389.4V505.4H401.4ZM395.4 327H429.4V315H395.4V327ZM423.4 321V500.2H435.4V321H423.4Z" fill="white"/>
<path d="M505 321V553H609V583H471V321H505Z" fill="white"/>
<path d="M505 321H511V315H505V321ZM505 553H499V559H505V553ZM609 553H615V547H609V553ZM609 583V589H615V583H609ZM471 583H465V589H471V583ZM471 321V315H465V321H471ZM499 321V553H511V321H499ZM505 559H609V547H505V559ZM603 553V583H615V553H603ZM609 577H471V589H609V577ZM477 583V321H465V583H477ZM471 327H505V315H471V327Z" fill="white"/>
<path d="M715.4 539C730.6 539 738.2 545.267 738.2 557.8V569.4C738.2 575.267 736.2 579.8 732.2 583C728.467 586.2 722.867 587.8 715.4 587.8C708.2 587.8 702.6 586.2 698.6 583C694.867 579.8 693 575.267 693 569.4V557.8C693 551.667 694.867 547 698.6 543.8C702.6 540.6 708.2 539 715.4 539Z" fill="white"/>
<line x1="656" y1="583.226" x2="656" y2="16" stroke="white" stroke-width="30"/>
</svg>
